<?xml version="1.0" encoding="utf-8"?>
<svg version="1.1" xmlns="http://www.w3.org/2000/svg" style="display: block;" viewBox="0 0 2048 2048" width="1024" height="1024" preserveAspectRatio="none">
  <path fill="rgb(30,30,30)" d="M 1056.04 2.723 C 1061.82 5.225 1111.43 56.562 1119.95 65.175 C 1157.5 103.299 1195.31 141.138 1233.38 178.684 C 1254.46 199.782 1278.04 225.16 1299.75 244.647 C 1287.92 260.826 1255.7 293.259 1240.83 308.989 L 1126.84 429.44 L 761.058 817.482 C 777.599 835.089 802.237 857.618 819.933 874.803 L 928.692 980.838 C 975.544 1026.54 1036.45 1090.65 1084.14 1132.51 L 857.687 1132.75 C 629.444 1133.22 665.551 1158.8 497.835 998.464 L 296.329 806.193 C 340.032 755.581 397.418 698.154 443.851 649.046 L 716.271 360.597 L 934.904 129.058 C 969.838 92.057 1020.49 35.291 1056.04 2.723 Z" style=""/>
  <path fill="rgb(30,30,30)" d="M 1049.46 960.165 C 1116.46 962.028 1184.08 960.51 1251.05 961.192 C 1280.38 961.492 1326.21 959.438 1353.96 963.041 C 1368.63 966.657 1391.93 974.16 1403.98 983.72 C 1446.36 1017.38 1489.21 1060.62 1528.82 1098.2 L 1732.19 1289.32 L 1260.26 1794.3 L 1108.85 1957.11 C 1086.68 1980.87 1053.7 2018.5 1030.42 2039.46 C 998.071 2012.77 964.522 1979.03 933.994 1949.47 L 780.33 1800.48 C 843.732 1727.39 919.591 1648.39 985.715 1576.4 C 1095.4 1455.78 1206.05 1336.16 1317.67 1217.55 C 1255.79 1153.59 1188.16 1093.99 1124.65 1031.72 C 1118.26 1025.46 1080.05 991.072 1076.49 985.21 C 1067.58 977.624 1059.44 968.566 1049.46 960.165 Z" style=""/>
  <path fill="rgb(0,0,0)" d="M 1049.46 960.165 C 1116.46 962.028 1184.08 960.51 1251.05 961.192 C 1280.38 961.492 1326.21 959.438 1353.96 963.041 C 1304.4 969.813 1264.8 967.943 1215.15 968.143 C 1161.35 968.358 1115.52 969.15 1061.8 963.355 C 1069.12 970.917 1074.3 974.511 1076.49 985.21 C 1067.58 977.624 1059.44 968.566 1049.46 960.165 Z" style=""/>
  <path fill="rgb(30,30,30)" d="M 1181.69 536.567 C 1268.34 537.567 1355.22 536.236 1441.93 536.761 C 1483.86 538.481 1530.36 532.887 1571.44 539.706 C 1614.16 546.792 1650.07 585.291 1680.11 614.235 L 1755.57 686.447 C 1851.71 778.073 1949.56 873.801 2046.75 963.865 C 2019.92 994.895 1983.3 1031.74 1954.77 1062.05 C 1904.08 1116.34 1853.08 1170.27 1801.75 1223.9 L 1785.21 1210.82 C 1756.44 1186.39 1721.96 1152.24 1693.71 1125.73 L 1514.22 956.71 C 1483.17 927.485 1452.42 897.868 1420.5 869.764 C 1374.72 829.463 1312.5 837.353 1256.42 837.39 L 1096.49 837.488 L 981.139 837.398 C 959.446 837.343 929.005 835.953 908.163 839.182 C 997.552 736.51 1088.75 635.62 1181.69 536.567 Z" style=""/>
  <path fill="rgb(30,30,30)" d="M 220.754 879.311 C 239.009 893.119 276.289 930.108 294.012 946.986 L 413.903 1060.36 C 450.918 1095.99 488.104 1131.41 525.455 1166.65 C 567.271 1205.9 610.163 1255.31 669.523 1257.4 C 718.472 1259.15 767.781 1258.44 816.793 1258.44 L 1131.93 1258.42 C 1111.22 1277.36 1074.51 1319.5 1053.74 1341.65 L 893.003 1512.31 L 875.438 1530.95 C 762.905 1532.42 649.629 1530.23 537.188 1531.03 C 439.281 1531.72 419.503 1512.44 349.61 1447.1 L 259.885 1362.36 L -3.445 1111.69 C 41.977 1063.32 87.797 1015.38 134.012 967.882 C 160.166 940.802 193.611 903.969 220.754 879.311 Z" style=""/>
</svg>