<svg version="1.1" xmlns="http://www.w3.org/2000/svg" style="display: block;" viewBox="0 0 2048 2048" width="1024" height="1024" preserveAspectRatio="none">
<path transform="translate(0,0)" fill="rgb(30,30,30)" d="M 1053.82 501.682 C 1056.94 502.958 1083.72 529.142 1088.32 533.535 C 1108.59 552.98 1129 572.279 1149.55 591.429 C 1160.93 602.19 1173.66 615.134 1185.38 625.073 C 1178.99 633.325 1161.6 649.867 1153.57 657.89 L 1092.04 719.325 L 894.589 917.242 C 903.518 926.222 916.818 937.713 926.37 946.478 L 985.079 1000.56 C 1010.37 1023.87 1043.25 1056.57 1068.99 1077.92 L 946.75 1078.04 C 823.543 1078.28 843.034 1091.33 752.5 1009.55 L 643.726 911.484 C 667.317 885.67 698.294 856.38 723.359 831.333 L 870.413 684.212 L 988.432 566.118 C 1007.29 547.246 1034.63 518.293 1053.82 501.682 z"/>
<path transform="translate(0,0)" fill="rgb(30,30,30)" d="M 1050.27 990.016 C 1086.44 990.966 1122.94 990.192 1159.09 990.54 C 1174.92 990.693 1199.66 989.645 1214.64 991.483 C 1222.56 993.327 1235.14 997.154 1241.64 1002.03 C 1264.52 1019.2 1287.65 1041.25 1309.03 1060.42 L 1418.81 1157.9 L 1164.06 1415.46 L 1082.33 1498.5 C 1070.36 1510.62 1052.56 1529.81 1039.99 1540.5 C 1022.53 1526.89 1004.42 1509.68 987.941 1494.6 L 904.992 1418.61 C 939.217 1381.33 980.166 1341.04 1015.86 1304.32 C 1075.07 1242.8 1134.8 1181.79 1195.05 1121.29 C 1161.65 1088.67 1125.14 1058.27 1090.86 1026.51 C 1087.41 1023.32 1066.78 1005.78 1064.86 1002.79 C 1060.05 998.921 1055.66 994.301 1050.27 990.016 z"/>
<path transform="translate(0,0)" fill="rgb(0,0,0)" d="M 1050.27 990.016 C 1086.44 990.966 1122.94 990.192 1159.09 990.54 C 1174.92 990.693 1199.66 989.645 1214.64 991.483 C 1187.89 994.937 1166.51 993.983 1139.71 994.085 C 1110.67 994.195 1085.93 994.599 1056.93 991.643 C 1060.88 995.5 1063.68 997.333 1064.86 1002.79 C 1060.05 998.921 1055.66 994.301 1050.27 990.016 z"/>
<path transform="translate(0,0)" fill="rgb(30,30,30)" d="M 1121.65 773.964 C 1168.42 774.474 1215.32 773.795 1262.13 774.063 C 1284.76 774.94 1309.86 772.087 1332.04 775.565 C 1355.1 779.179 1374.48 798.815 1390.7 813.578 L 1431.43 850.409 C 1483.33 897.142 1536.15 945.967 1588.61 991.903 C 1574.13 1007.73 1554.36 1026.52 1538.96 1041.98 C 1511.6 1069.67 1484.07 1097.18 1456.36 1124.53 L 1447.43 1117.86 C 1431.9 1105.4 1413.29 1087.98 1398.04 1074.46 L 1301.15 988.254 C 1284.39 973.348 1267.79 958.242 1250.56 943.908 C 1225.85 923.353 1192.26 927.377 1161.99 927.396 L 1075.66 927.446 L 1013.39 927.4 C 1001.68 927.372 985.248 926.663 973.997 928.31 C 1022.25 875.943 1071.48 824.485 1121.65 773.964 z"/>
<path transform="translate(0,0)" fill="rgb(30,30,30)" d="M 602.93 948.777 C 612.784 955.82 632.908 974.686 642.475 983.294 L 707.193 1041.12 C 727.174 1059.29 747.247 1077.36 767.409 1095.33 C 789.982 1115.35 813.135 1140.55 845.178 1141.62 C 871.601 1142.51 898.218 1142.15 924.675 1142.15 L 1094.79 1142.14 C 1083.61 1151.8 1063.79 1173.29 1052.58 1184.59 L 965.814 1271.63 L 956.332 1281.14 C 895.586 1281.89 834.439 1280.77 773.743 1281.18 C 720.892 1281.53 710.216 1271.7 672.487 1238.37 L 624.053 1195.15 L 481.906 1067.3 C 506.425 1042.63 531.159 1018.18 556.106 993.952 C 570.224 980.14 588.278 961.354 602.93 948.777 z"/>
</svg>
